<?xml version="1.0" standalone="no"?><!DOCTYPE svg PUBLIC "-//W3C//DTD SVG 1.1//EN" "http://www.w3.org/Graphics/SVG/1.1/DTD/svg11.dtd"><svg t="1510198889272" class="icon" style="" viewBox="0 0 1024 1024" version="1.1" xmlns="http://www.w3.org/2000/svg" p-id="2699" xmlns:xlink="http://www.w3.org/1999/xlink" width="200" height="200"><defs><style type="text/css"></style></defs><path d="M128 230.4v204.8h51.2V230.4c0-28.16 23.04-51.2 51.2-51.2h204.8V128H230.4C174.08 128 128 174.08 128 230.4z m51.2 614.4v-204.8H128v204.8c0 56.32 46.08 102.4 102.4 102.4h204.8v-51.2H230.4c-28.16 0-51.2-23.04-51.2-51.2z m716.8 0c0 28.16-23.04 51.2-51.2 51.2h-204.8v51.2h204.8c56.32 0 102.4-46.08 102.4-102.4v-204.8h-51.2v204.8zM844.8 128h-204.8v51.2h204.8c28.16 0 51.2 23.04 51.2 51.2v204.8h51.2V230.4c0-56.32-46.08-102.4-102.4-102.4z" p-id="2700"></path></svg>